# xmcd
#
# Track frame offsets:
#	150
#	17880
#	33126
#	52627
#	74962
#	96723
#	107028
#	127416
#	140165
#	157252
#	183397
#	206567
#
# Disc length: 3094 seconds
#
# Revision: 1
# Processed by: cddbd v1.5.1PL0 Copyright (c) Steve Scherf et al.
# Submitted via: EasyCDDAExtractor 7.0.5.4
#
DISCID=be0c140c
DTITLE=Asleep At The Wheel - Wide Awake! Live In Oklahoma CD2
DYEAR=2003
DGENRE=Country
TTITLE0=Cotton Eyed Joe
TTITLE1=Am I High?
TTITLE2=Dead Man
TTITLE3=Bump Bounce Boogie
TTITLE4=One O'Clock Jump
TTITLE5=Tulsa Straight Ahead
TTITLE6=All About Bertha
TTITLE7=Blowing Big
TTITLE8=Just To Walk That Little Girl Home
TTITLE9=Down And Out
TTITLE10=My Baby Thinks She's A Train
TTITLE11=Choo Choo Ch'Boogie
EXTD=
EXTT0=
EXTT1=
EXTT2=
EXTT3=
EXTT4=
EXTT5=
EXTT6=
EXTT7=
EXTT8=
EXTT9=
EXTT10=
EXTT11=
PLAYORDER=
